<svg width="1440" height="63" viewBox="0 0 1440 63" fill="none" xmlns="http://www.w3.org/2000/svg">
<g clip-path="url(#clip0)">
<path opacity="0.2" d="M738.785 5.60001C478.95 14.3 235.538 32.8 25.9835 57.9C203.481 40.2 400.1 27 607.293 20C916.957 9.6 1204.35 14.6 1440 31.6V9.30001C1232.13 -1.09999 992.995 -2.89999 738.785 5.60001Z" fill="#F6F2EE"/>
<path opacity="0.5" d="M435.532 35.8C825.171 22.7 1179.49 34 1440 63V31.7C1204.35 14.7 916.957 9.70001 607.293 20.1C400.1 27 203.481 40.2 25.9834 57.9C21.9341 58.4 17.9972 58.9 13.9478 59.4C147.127 48.8 288.742 40.7 435.532 35.8Z" fill="#F6F2EE"/>
<path d="M1440 63C1179.49 34.1 825.171 22.7 435.532 35.8C288.63 40.7 147.127 48.8 13.9478 59.4C9.33604 60 4.61178 60.5 0 61.1V63H1440Z" fill="white"/>
</g>
<defs>
<clipPath id="clip0">
<rect width="1440" height="62.8" fill="white" transform="translate(0 0.200012)"/>
</clipPath>
</defs>
</svg>
