<svg width="72" height="72" viewBox="0 0 72 72" fill="none" xmlns="http://www.w3.org/2000/svg">
<path d="M58.9 40.9H53.3L49.5 38.5L42 37L36.5 36.5L30.5 37.7L25 38.5L19.7 40.9H14.1C11.8 40.9 10 39 10 36.8V9.1C10 6.9 11.8 5 14.1 5H58.9C61.2 5 63.1 6.9 63.1 9.1V36.8C63.1 39.1 61.2 40.9 58.9 40.9ZM14.1 8.2C13.6 8.2 13.2 8.6 13.2 9.1V36.8C13.2 37.3 13.6 37.7 14.1 37.7H19.7H22.5H25.3L36.5 35L47.7 37.7H50.5H53.3H58.9C59.4 37.7 59.8 37.3 59.8 36.8V9.1C59.8 8.6 59.4 8.2 58.9 8.2H14.1Z" fill="#6C8D99"/>
<path fill-rule="evenodd" clip-rule="evenodd" d="M26.2 20.1C26.2 14.6 30.7 10.1 36.2 10.1C41.8 10.1 46.2 14.6 46.2 20.1C46.2 25.6 41.7 30.1 36.2 30.1C30.7 30.1 26.2 25.6 26.2 20.1Z" fill="#B5745B"/>
<path d="M60.326 58.5H12.626C12.226 58.5 11.726 58.3 11.426 58C11.126 57.7 10.926 57.2 11.026 56.8C11.126 55.4 11.526 51.7 12.826 47.8C14.126 43.8 16.026 41 18.326 39.3C22.926 35.9 28.126 34.6 36.426 34.6C44.726 34.6 49.926 36 54.526 39.3C56.826 41 58.726 43.9 60.026 47.8C61.326 51.7 61.726 55.4 61.826 56.8C61.826 57.2 61.726 57.7 61.426 58C61.226 58.4 60.726 58.5 60.326 58.5ZM14.326 55.4H58.526C58.026 51 56.326 44.5 52.726 41.9C48.726 39 44.026 37.8 36.526 37.8C29.026 37.8 24.326 39 20.326 41.9C16.626 44.5 14.926 51 14.326 55.4Z" fill="#6C8D99"/>
<path d="M69.3 71.5H3.6C2.7 71.5 2 70.8 2 69.9V61.5C2 58.4 4.5 56 7.5 56H65.3C68.4 56 70.8 58.5 70.8 61.5V69.9C70.9 70.8 70.2 71.5 69.3 71.5ZM5.2 68.3H67.7V61.5C67.7 60.2 66.6 59.1 65.3 59.1H7.5C6.2 59.1 5.1 60.2 5.1 61.5V68.3H5.2Z" fill="#6C8D99"/>
</svg>
