<svg width="72" height="72" viewBox="0 0 72 72" fill="none" xmlns="http://www.w3.org/2000/svg">
<path d="M54.5 47.4C49.9 47.4 46.1 43.6 46.1 39C46.1 34.4 49.9 30.6 54.5 30.6C59.1 30.6 62.9 34.4 62.9 39C62.9 43.6 59.1 47.4 54.5 47.4ZM54.5 33.2C51.3 33.2 48.6 35.8 48.6 39.1C48.6 42.3 51.2 45 54.5 45C57.7 45 60.4 42.4 60.4 39.1C60.3 35.8 57.7 33.2 54.5 33.2Z" fill="#F6F2EE"/>
<path d="M66 69.1C65.3 69.1 64.7 68.5 64.7 67.8C64.7 62.1 63.8 57.9 61.9 55.1C60.2 52.5 57.7 51.2 54.3 51.2C50.9 51.2 48.4 52.5 46.7 55.1C44.9 57.9 43.9 62.1 43.9 67.8C43.9 68.5 43.3 69.1 42.6 69.1C41.9 69.1 41.3 68.5 41.3 67.8C41.3 61.6 42.4 56.9 44.5 53.7C46.7 50.4 50 48.7 54.2 48.7C58.5 48.7 61.7 50.4 63.9 53.7C66 56.9 67.1 61.6 67.1 67.8C67.3 68.6 66.7 69.1 66 69.1Z" fill="#F6F2EE"/>
<path d="M44.7 57.4H5.3C4.6 57.4 4 56.8 4 56.1C4 55.4 4.6 54.8 5.3 54.8H44.7C45.4 54.8 46 55.4 46 56.1C46 56.8 45.4 57.4 44.7 57.4Z" fill="#F6F2EE"/>
<path d="M24.8 38.4L22.8 43L20.8 38.4C14.9 39.4 11.7 44.9 11.7 55.2H33.9C33.9 44.9 30.8 39.3 24.8 38.4Z" fill="#B5745B"/>
<path d="M33.9 56.4H11.7C11 56.4 10.4 55.8 10.4 55.1C10.4 49.8 11.2 45.6 12.9 42.6C14.6 39.5 17.2 37.6 20.6 37.1C21.2 37 21.7 37.3 22 37.8L22.9 39.8L23.8 37.8C24 37.3 24.6 37 25.2 37.1C28.6 37.7 31.2 39.5 32.9 42.6C34.5 45.6 35.4 49.8 35.4 55.1C35.2 55.8 34.6 56.4 33.9 56.4ZM13 53.9H32.7C32.6 49.6 31.9 46.3 30.5 43.9C29.3 41.8 27.7 40.4 25.6 39.8L24 43.5C23.8 44 23.3 44.3 22.9 44.3C22.5 44.3 21.9 44 21.8 43.5L20.2 39.8C18.1 40.4 16.4 41.7 15.3 43.9C13.8 46.3 13.1 49.6 13 53.9Z" fill="#F6F2EE"/>
<path d="M22.8 34.5C26.0033 34.5 28.6 31.9033 28.6 28.7C28.6 25.4968 26.0033 22.9 22.8 22.9C19.5967 22.9 17 25.4968 17 28.7C17 31.9033 19.5967 34.5 22.8 34.5Z" fill="#B5745B"/>
<path d="M22.8 35.7C18.9 35.7 15.8 32.5 15.8 28.7C15.8 24.9 19 21.7 22.8 21.7C26.7 21.7 29.8 24.9 29.8 28.7C29.8 32.5 26.7 35.7 22.8 35.7ZM22.8 24.2C20.3 24.2 18.3 26.2 18.3 28.7C18.3 31.2 20.3 33.2 22.8 33.2C25.3 33.2 27.3 31.2 27.3 28.7C27.3 26.2 25.3 24.2 22.8 24.2Z" fill="#F6F2EE"/>
<path d="M38.6 32C38.4 32 38.3 32 38.1 31.9C37.6 31.7 37.3 31.2 37.3 30.7V27.2H37.2C33.4 27.2 30.2 24.1 30.2 20.2V9C30.2 5.2 33.3 2 37.2 2H59.2C63 2 66.2 5.1 66.2 9V20.4C66.2 24.2 63.1 27.4 59.2 27.4H43.9L39.5 31.8C39.3 31.9 39 32 38.6 32ZM37.3 4.5C34.8 4.5 32.8 6.5 32.8 9V20.4C32.8 22.9 34.8 24.9 37.3 24.9H38.7C39.4 24.9 40 25.5 40 26.2V27.9L42.6 25.3C42.8 25.1 43.2 24.9 43.5 24.9H59.4C61.9 24.9 63.9 22.9 63.9 20.4V9C63.9 6.5 61.9 4.5 59.4 4.5H37.3Z" fill="#F6F2EE"/>
</svg>
