<?xml version="1.0" encoding="utf-8"?>
<!-- Generator: Adobe Illustrator 25.0.0, SVG Export Plug-In . SVG Version: 6.00 Build 0)  -->
<svg version="1.1" id="Layer_1" xmlns="http://www.w3.org/2000/svg" xmlns:xlink="http://www.w3.org/1999/xlink" x="0px" y="0px"
	 viewBox="0 0 355.9 125.6" style="enable-background:new 0 0 355.9 125.6;" xml:space="preserve">
<style type="text/css">
	.st0{fill:#6C8D99;}
	.st1{fill:#C7BFBC;}
	.st2{fill:#A1C4CA;}
	.st3{fill:#C1D8D9;}
	.st4{fill:#CCD9DB;}
</style>
<g>
	<path class="st0" d="M196.9,56.5l-9.4-26h8.6l4.7,15.7l4.4-15.7h8l4.4,15.7l4.7-15.7h8.6l-9.3,26h-7.4l-5-15.8l-5,15.8H196.9z
		 M243.9,57.2c-3.8,0-6.8-1.3-8.9-3.8c-2.2-2.6-3.3-5.8-3.3-9.9c0-4,1.1-7.2,3.4-9.8c2.3-2.6,5.3-3.9,8.9-3.9c1.8,0,3.5,0.4,4.9,1.2
		c1.4,0.8,2.5,1.9,3.2,3.2v-3.7h8.2v26h-8.2v-3.7c-0.7,1.3-1.8,2.3-3.3,3.2C247.3,56.8,245.7,57.2,243.9,57.2z M246.2,50.4
		c2,0,3.5-0.6,4.6-1.9c1.1-1.3,1.6-2.9,1.6-4.9c0-1.9-0.5-3.6-1.6-4.9c-1.1-1.3-2.6-1.9-4.6-1.9c-1.9,0-3.4,0.6-4.5,1.9
		c-1.1,1.3-1.7,2.9-1.7,4.9c0,2,0.6,3.7,1.7,4.9C242.9,49.7,244.4,50.4,246.2,50.4z M264,56.5l12.8-19.1h-11.5v-6.8h24l-12.6,19.2
		h11.6v6.8H264z M314.9,53.4c-2.6,2.6-6.1,3.9-10.5,3.9c-4.4,0-7.9-1.3-10.5-3.9c-2.6-2.6-3.9-5.9-3.9-9.9s1.3-7.3,3.9-9.9
		s6.1-3.9,10.5-3.9c4.4,0,7.9,1.3,10.5,3.9s3.9,5.9,3.9,9.9S317.5,50.9,314.9,53.4z M304.5,50.3c1.9,0,3.4-0.6,4.5-1.9
		c1.1-1.3,1.7-2.9,1.7-4.9c0-2-0.6-3.6-1.7-4.9c-1.1-1.3-2.6-1.9-4.5-1.9c-1.9,0-3.5,0.6-4.6,1.9c-1.1,1.3-1.6,2.9-1.6,4.9
		c0,2,0.5,3.6,1.6,4.9C301,49.7,302.5,50.3,304.5,50.3z M199.9,97.6c1.1,0,2.1-0.1,3-0.3v2.8c-0.9,0.3-2.1,0.4-3.6,0.4
		c-0.9,0-1.6-0.1-2.2-0.2c-0.6-0.1-1.3-0.5-2-0.9c-0.7-0.5-1.3-1.3-1.6-2.4c-0.4-1.1-0.6-2.5-0.6-4.1V80.5h-4.3v-2.8h4.3v-7.4h3.1
		v7.4h6.2v2.8H196v11.7c0,2.1,0.3,3.5,1,4.3C197.6,97.2,198.6,97.6,199.9,97.6z M220,77.2c2.8,0,4.9,0.8,6.4,2.4
		c1.4,1.6,2.1,4,2.1,7v13.5h-3.1V88c0-5.3-2.1-8-6.4-8c-2.4,0-4.2,0.8-5.5,2.4c-1.2,1.6-1.9,3.7-1.9,6.4v11.4h-3.2V65.8h3.1v12h0
		v5.2c0.5-1.7,1.5-3.1,2.9-4.2C216,77.7,217.8,77.2,220,77.2z M255.5,87.6c0,0.9,0,1.6-0.1,2.1h-18.1c0,2.5,0.7,4.5,2.1,6
		c1.4,1.5,3.3,2.2,5.7,2.2c1.7,0,3.1-0.4,4.3-1.1c1.2-0.7,2-1.7,2.5-3h3.2c-0.4,2.1-1.6,3.7-3.4,5c-1.8,1.3-4,1.9-6.6,1.9
		c-3.4,0-6.1-1.1-8.1-3.2c-2-2.1-3-5-3-8.6c0-3.5,1-6.4,3-8.5c2-2.1,4.6-3.2,7.9-3.2c3.1,0,5.6,1,7.6,2.9
		C254.5,82.1,255.5,84.6,255.5,87.6z M237.3,87.2h15.1c0-2.2-0.7-4-2-5.4c-1.3-1.4-3.1-2-5.4-2c-2.2,0-4,0.7-5.4,2
		C238.2,83.2,237.5,85,237.3,87.2z M261.4,100.2V77.8h3.2v5.9c0.5-2.1,1.4-3.7,2.7-4.7c1.3-1.1,2.8-1.6,4.5-1.6c0.6,0,1.3,0.1,2,0.2
		v2.9c-0.7-0.1-1.4-0.1-2.1-0.1c-2.4,0-4.2,1-5.4,3c-1.2,2-1.8,4.4-1.8,7.2v9.7H261.4z M287.1,100.8c-3.4,0-6.2-1.1-8.2-3.3
		c-2-2.2-3-5-3-8.4s1-6.2,3.1-8.5c2-2.2,4.8-3.4,8.2-3.4c2,0,3.8,0.5,5.4,1.5c1.5,1,2.6,2.3,3.3,4v-4.9h3.2v22.4h-3.2v-4.8
		c-0.7,1.6-1.8,2.9-3.4,3.9C290.8,100.3,289,100.8,287.1,100.8z M287.5,97.9c2.6,0,4.7-0.9,6.2-2.6c1.5-1.7,2.3-3.8,2.3-6.3
		c0-2.5-0.8-4.6-2.3-6.4c-1.5-1.7-3.6-2.6-6.2-2.6c-2.5,0-4.6,0.8-6.1,2.5c-1.5,1.7-2.3,3.8-2.3,6.4c0,2.6,0.8,4.7,2.3,6.3
		C282.9,97,284.9,97.9,287.5,97.9z M319,77.2c3.2,0,5.8,1.1,7.9,3.3c2.1,2.2,3.1,5.1,3.1,8.5c0,3.4-1.1,6.2-3.1,8.4
		c-2.1,2.2-4.8,3.3-8,3.3c-2,0-3.7-0.5-5.3-1.5c-1.6-1-2.7-2.3-3.5-3.9v15.4h-3.1v-10.6h0V77.8h3.2v4.9c0.7-1.7,1.9-3,3.5-4
		C315.2,77.7,317,77.2,319,77.2z M318.5,97.9c2.4,0,4.4-0.8,6-2.5c1.6-1.7,2.4-3.8,2.4-6.3c0-2.6-0.8-4.7-2.4-6.4
		c-1.6-1.7-3.6-2.5-6-2.5c-2.5,0-4.5,0.8-6.2,2.5c-1.6,1.7-2.4,3.8-2.4,6.4c0,2.6,0.8,4.7,2.4,6.3C313.9,97,316,97.9,318.5,97.9z
		 M352.8,77.8h3.1v23.1c0,3.6-1.1,6.4-3.1,8.2c-1.8,1.5-4.1,2.3-7.1,2.3c-3.2,0-5.7-0.8-7.5-2.3c-1.6-1.4-2.5-3.3-2.5-5.7h3.2
		c0.2,3.5,2.4,5.3,6.8,5.3c4.7,0,7.1-2.6,7.1-7.9v-5.5c-0.7,1.6-1.7,3-3.1,4c-1.4,1-3.2,1.5-5.2,1.5c-5.8,0-8.7-3.3-8.7-9.9v-13h3.1
		v12.4c0,2.5,0.5,4.4,1.5,5.7c1,1.3,2.7,1.9,5.1,1.9c2.4,0,4.2-0.9,5.5-2.6c1.3-1.7,1.9-3.7,1.9-6V77.8z"/>
	<path class="st1" d="M42.4,4.4c-7.8,0-14.2,6.4-14.2,14.2c0,1.1,0.2,2.2,0.4,3.2c1.6-0.2,3.2-0.3,4.8-0.3c4.6,0,9.1,0.8,13.2,2.2
		c0.3-5.8,2.1-11.2,5-15.8C49.1,5.7,45.9,4.4,42.4,4.4z"/>
	<path class="st2" d="M112.8,10.9c-0.7,0-1.4,0.1-2.1,0.1c2.1,4.4,3.3,9.3,3.3,14.6c0,8.2-2.9,15.7-7.8,21.5
		c2.5,1.9,4.6,4.2,6.5,6.7c5.3-3.5,11.6-5.5,18.3-5.5c6.7,0,12.8,2,18.1,5.3c0.3-1.9,0.5-3.8,0.5-5.8
		C149.7,27.5,133.2,10.9,112.8,10.9z"/>
	<path class="st3" d="M102.1,12.5c-0.7-1.2-1.6-2.4-2.5-3.5c-1-1.2-2.1-2.2-3.2-3.2C92,2.3,86.4,0,80.3,0C73,0,66.5,3,61.9,7.9
		c-1,1.1-2,2.2-2.8,3.4c-1.1,1.7-2,3.5-2.7,5.5c-1,2.7-1.6,5.6-1.7,8.7c0,0.1,0,0.1,0,0.2c0,0.7,0.1,1.3,0.2,2
		c0.8,0.5,1.6,1,2.4,1.5c1.1,0.8,2.2,1.6,3.2,2.5c3,2.6,5.7,5.7,7.9,9.1c0.3,0.5,0.7,1.1,1,1.6c1-0.4,2-0.8,3.1-1.2
		c1.4-0.5,2.9-0.9,4.4-1.2c2.3-0.4,4.6-0.7,7-0.7c5.5,0,10.7,1.3,15.4,3.4c4.1-4.5,6.7-10.5,6.7-17.1
		C105.8,20.8,104.4,16.3,102.1,12.5z"/>
	<path class="st4" d="M54.5,37.3c-0.7-0.6-1.4-1.1-2.2-1.6c-0.5-0.4-1-0.7-1.5-1c-1.1-0.7-2.3-1.3-3.6-1.9c-0.4-0.2-0.8-0.4-1.2-0.6
		c-3.8-1.6-8-2.5-12.4-2.5c-0.1,0-0.2,0-0.3,0c-1.7,0-3.4,0.2-5.1,0.4c-1.5,0.2-3,0.5-4.5,1C10.1,35.2,0,48,0,63
		c0,18.4,15,33.4,33.4,33.4c6.5,0,12.6-1.9,17.7-5.1c-2.3-4.8-3.6-10.1-3.6-15.7c0-9.7,3.9-18.6,10.1-25.1c0.9-1,1.9-1.9,3-2.8
		c0.6-0.5,1.1-0.9,1.7-1.3C60.2,42.9,57.6,39.8,54.5,37.3z"/>
	<path class="st3" d="M152.7,68.7c-0.8-1.3-1.7-2.5-2.8-3.7c-1-1.1-2-2-3.1-2.9c-4.3-3.4-9.7-5.6-15.7-5.6c-5.2,0-10.1,1.6-14.2,4.3
		c2,4.5,3.2,9.5,3.2,14.7c0,3-0.4,5.8-1.1,8.6c-0.4,1.5-0.8,2.9-1.3,4.3c-0.1,0.3-0.2,0.7-0.4,1c2,0.4,3.9,1.2,5.7,2.1
		c5.9,3.1,10.3,8.6,11.7,15.3c12.3-1.8,21.8-12.3,21.8-25C156.5,77.1,155.1,72.6,152.7,68.7z"/>
	<path class="st0" d="M126.9,111c0-1.5-0.3-2.9-0.8-4.2c-1.9-5.5-7.1-9.6-13.3-9.6c0,0,0,0,0,0c-0.6,0-1.1,0.1-1.7,0.2
		c-1.5,0.2-3,0.6-4.3,1.2c-0.5,0.2-0.9,0.5-1.3,0.7c-0.7,0.4-1.4,1-2.1,1.5c-0.3,0.3-0.6,0.6-0.9,0.9c-1.7,1.9-3,4.2-3.5,6.7
		c-0.2,0.9-0.3,1.9-0.3,2.9c0,7.8,6.4,14.2,14.2,14.2c6.5,0,12-4.4,13.6-10.4c0.3-1.2,0.6-2.4,0.6-3.7
		C127,111.3,126.9,111.2,126.9,111z"/>
	<path class="st2" d="M92.5,102.2c1-2.2,2.3-4.2,4-6c0.4-0.5,0.9-1,1.5-1.4c1.1-0.9,2.1-1.7,3.3-2.4c0.7-0.4,1.4-0.8,2.1-1.2
		c1.4-0.7,3-1.1,4.6-1.5c0,0,0-0.1,0.1-0.1c0.2-0.3,0.4-0.7,0.6-1c0.7-1.3,1.2-2.6,1.7-4c1-2.8,1.6-5.8,1.6-9c0-2.9-0.6-5.7-1.4-8.4
		c-0.5-1.5-1-2.9-1.7-4.3c-0.7-1.3-1.4-2.6-2.2-3.8c-1.8-2.4-3.9-4.6-6.3-6.3c-1.2-0.9-2.5-1.6-3.9-2.3c-1.6-0.8-3.3-1.5-5.1-1.9
		c-2.4-0.7-4.9-1.1-7.5-1.1c-2.7,0-5.3,0.5-7.8,1.2c-1.1,0.3-2.2,0.6-3.3,1c-0.1,0-0.1,0.1-0.2,0.1c-0.2,0.1-0.4,0.2-0.6,0.3
		c-1,0.5-1.9,1-2.9,1.6c-0.4,0.2-0.8,0.4-1.1,0.6c-0.1,0-0.1,0.1-0.2,0.1c-0.8,0.6-1.5,1.2-2.2,1.9c-0.4,0.3-0.8,0.6-1.2,1
		c-5.3,5.1-8.7,12.3-8.7,20.3c0,3.6,0.7,7.1,2,10.3c0.5,1.4,1.2,2.6,2,3.9c0.7,1.2,1.5,2.3,2.3,3.4c5.2,6.4,13,10.6,21.8,10.6
		C86.8,103.7,89.7,103.1,92.5,102.2C92.5,102.2,92.5,102.2,92.5,102.2z"/>
</g>
</svg>
